<svg xmlns="http://www.w3.org/2000/svg" width="45" height="45" fill="none" viewBox="0 0 45 45"><g clip-path="url(#a)"><rect width="45" height="45" fill="url(#b)" rx="22.5"/><path fill="#26d367" stroke="#26d367" stroke-linecap="round" stroke-linejoin="round" stroke-width="1.667" d="M14.1 12.833h3.15a1.267 1.267 0 0 1 1.267 1.267v3.15a1.27 1.27 0 0 1-.507 1.014l-.491.368-.006.004a1.885 1.885 0 0 0-.55 2.322l.002.003a15.54 15.54 0 0 0 7.092 7.084l.02.009a1.884 1.884 0 0 0 2.282-.572l.373-.486.004-.006a1.27 1.27 0 0 1 1.014-.507h3.15a1.267 1.267 0 0 1 1.267 1.267v3.15a1.267 1.267 0 0 1-1.267 1.267A18.07 18.07 0 0 1 12.833 14.1a1.267 1.267 0 0 1 1.267-1.267"/></g><defs><linearGradient id="b" x1="-3.841" x2="49.39" y1="25.793" y2="25.244" gradientUnits="userSpaceOnUse"><stop stop-color="#d8fdd2"/><stop offset="1" stop-color="#9fff8f"/></linearGradient><clipPath id="a"><path fill="#fff" d="M0 0h45v45H0z"/></clipPath></defs></svg>