<svg xmlns="http://www.w3.org/2000/svg" width="74" height="69" fill="none"><path fill="#F2D59F" d="M72.342 6.132V47.63c0 1.28-1.113 2.32-2.488 2.32h-7.24c1.44-1.826 2.289-4.082 2.289-6.523 0-1.592-.364-3.107-1.015-4.476l.162-.065V16.183c-2.748 0-4.975-2.076-4.975-4.639h-44.15c0 2.563-2.228 4.64-4.975 4.64v21.395c2.748 0 4.975 2.076 4.975 4.638h26.307l.07.008c-.047.394-.07.795-.07 1.201 0 2.44.849 4.697 2.288 6.523H4.146c-1.375 0-2.488-1.04-2.488-2.32V6.132c0-1.28 1.113-2.319 2.488-2.319h65.708c1.375 0 2.488 1.04 2.488 2.32Z"/><path fill="#8ECAC1" d="m62.507 50.083 6.28 10.142-6.922-1.252-2.297 6.214-6.489-10.479.153-.247c3.789-.048 7.145-1.755 9.275-4.378Z"/><path fill="#E6B263" d="M46.034 34.551c-2.589 1.786-4.368 4.532-4.733 7.674l-.07-.008H14.924c0-2.562-2.227-4.638-4.975-4.638V16.183c2.748 0 4.975-2.076 4.975-4.639h44.15c0 2.563 2.228 4.64 4.976 4.64v22.701l-.163.065c-1.84-3.864-5.993-6.56-10.82-6.56-2.635 0-5.068.803-7.033 2.161Z"/><path fill="#FF7124" d="M43.52 49.949c-1.44-1.826-2.289-4.082-2.289-6.523 0-.406.024-.807.07-1.2.365-3.143 2.144-5.889 4.733-7.675 1.965-1.358 4.398-2.16 7.033-2.16 4.827 0 8.98 2.695 10.82 6.56a10.376 10.376 0 0 1 1.015 4.475c0 2.44-.849 4.697-2.288 6.523-.035.046-.07.09-.108.134-2.13 2.623-5.486 4.33-9.275 4.378l-.164.001-.143-.001c-3.79-.042-7.15-1.743-9.283-4.362a5.322 5.322 0 0 1-.121-.15Zm14.417-6.523c0-2.508-2.18-4.54-4.87-4.54s-4.87 2.032-4.87 4.54c0 2.509 2.18 4.542 4.87 4.542s4.87-2.033 4.87-4.542Z"/><path fill="#8ECAC1" d="M53.067 47.968c2.69 0 4.87-2.033 4.87-4.542 0-2.508-2.18-4.54-4.87-4.54s-4.87 2.032-4.87 4.54c0 2.509 2.18 4.542 4.87 4.542ZM52.924 54.46l.154.248-6.488 10.479-2.297-6.214-6.922 1.252 6.27-10.126c2.133 2.619 5.494 4.32 9.283 4.362Z"/><path fill="#5E2A41" d="M69.854 51.495h-7.348c-.916 0-1.658-.692-1.658-1.546 0-.854.742-1.547 1.658-1.547h7.348c.457 0 .83-.346.83-.773V6.132c0-.426-.373-.773-.83-.773H4.146c-.457 0-.83.347-.83.773V47.63c0 .427.373.773.83.773H43.64c.916 0 1.659.693 1.659 1.547s-.743 1.546-1.658 1.546H4.145C1.86 51.495 0 49.76 0 47.629V6.132c0-2.131 1.86-3.865 4.146-3.865h65.708C72.14 2.267 74 4 74 6.132V47.63c0 2.132-1.86 3.866-4.146 3.866Z"/><path fill="#5E2A41" d="M43.826 20.765H30.175c-.916 0-1.658-.693-1.658-1.547s.742-1.546 1.658-1.546h13.651c.916 0 1.658.692 1.658 1.546 0 .854-.742 1.547-1.658 1.547ZM54.412 28.431H19.588c-.916 0-1.658-.692-1.658-1.546 0-.854.742-1.547 1.658-1.547h34.824c.916 0 1.659.693 1.659 1.547s-.743 1.546-1.659 1.546ZM46.035 36.097H19.588c-.916 0-1.658-.692-1.658-1.546 0-.854.742-1.546 1.658-1.546h26.447c.915 0 1.658.692 1.658 1.546 0 .854-.743 1.546-1.658 1.546Z"/><path fill="#5E2A41" d="M41.231 43.764H14.924c-.916 0-1.658-.693-1.658-1.547 0-1.705-1.488-3.092-3.317-3.092-.916 0-1.658-.693-1.658-1.546V16.183c0-.854.742-1.546 1.658-1.546 1.83 0 3.317-1.388 3.317-3.093 0-.854.742-1.546 1.658-1.546h44.15c.917 0 1.66.693 1.66 1.546 0 1.705 1.487 3.093 3.316 3.093.916 0 1.658.692 1.658 1.546v22.702c0 .854-.742 1.546-1.658 1.546-.916 0-1.659-.692-1.659-1.546V17.534c-2.327-.561-4.163-2.273-4.765-4.443H16.373c-.602 2.17-2.438 3.882-4.765 4.443v18.694c2.327.56 4.163 2.273 4.765 4.443H41.23c.916 0 1.659.692 1.659 1.546 0 .854-.743 1.547-1.659 1.547ZM46.59 66.733c-.053 0-.106-.002-.16-.007-.646-.058-1.197-.463-1.408-1.035l-1.828-4.945-5.507.997c-.639.116-1.289-.127-1.666-.62a1.46 1.46 0 0 1-.086-1.671l6.27-10.127c.458-.74 1.472-.992 2.265-.566.793.428 1.065 1.373.607 2.113l-4.451 7.189 3.35-.606c.812-.148 1.616.285 1.885 1.014l1.111 3.008 4.821-7.787c.457-.74 1.471-.995 2.265-.57.794.426 1.067 1.371.61 2.111l-.152.248-6.49 10.481c-.298.481-.848.773-1.436.773Z"/><path fill="#5E2A41" d="M59.567 66.733c-.588 0-1.138-.292-1.436-.773l-6.64-10.722c-.46-.738-.192-1.685.6-2.114.791-.43 1.806-.179 2.267.56l.154.247 4.673 7.546 1.111-3.008c.27-.729 1.073-1.162 1.884-1.014l3.351.606-4.461-7.205c-.458-.74-.186-1.685.607-2.112.793-.427 1.807-.174 2.265.566l6.28 10.142a1.46 1.46 0 0 1-.086 1.67c-.377.494-1.028.737-1.666.621l-5.507-.997-1.828 4.945c-.211.573-.762.977-1.409 1.035a1.82 1.82 0 0 1-.16.007Z"/><path fill="#5E2A41" d="M53.067 56.008c-.06 0-.12 0-.179-.002-4.18-.05-8.029-1.86-10.561-4.965-.05-.06-.098-.12-.146-.18-1.705-2.163-2.608-4.735-2.608-7.434 0-.461.027-.922.08-1.37.403-3.472 2.37-6.662 5.395-8.749 2.332-1.611 5.105-2.463 8.019-2.463 5.33 0 10.172 2.935 12.336 7.477a11.784 11.784 0 0 1 1.157 5.104c0 2.694-.898 5.26-2.6 7.425-.039.052-.09.117-.149.187-2.53 3.102-6.371 4.912-10.545 4.969a8.77 8.77 0 0 1-.199.001Zm0-22.071c-2.197 0-4.288.642-6.046 1.856-2.283 1.576-3.767 3.98-4.071 6.599-.04.339-.06.686-.06 1.034 0 2.036.68 3.975 1.966 5.607.033.041.062.078.093.114l.013.016c1.912 2.35 4.822 3.716 7.982 3.751l.038.001h.227c3.158-.04 6.065-1.413 7.975-3.765l.042-.05c.01-.011.02-.025.03-.038l.022-.03c1.286-1.631 1.966-3.57 1.966-5.606a8.889 8.889 0 0 0-.872-3.849c-1.632-3.426-5.285-5.64-9.305-5.64Z"/><path fill="#5E2A41" d="M53.067 49.514c-3.6 0-6.529-2.73-6.529-6.088 0-3.356 2.929-6.087 6.529-6.087s6.529 2.73 6.529 6.087c0 3.357-2.93 6.088-6.53 6.088Zm0-9.083c-1.771 0-3.212 1.344-3.212 2.995 0 1.652 1.44 2.995 3.212 2.995 1.771 0 3.212-1.343 3.212-2.995 0-1.651-1.441-2.995-3.212-2.995Z"/></svg>