<svg width="11" height="9" viewBox="0 0 11 9" fill="none" xmlns="http://www.w3.org/2000/svg">
<path d="M10.4853 3.87123C10.6135 3.74123 10.6824 3.57608 10.6803 3.38169C10.676 2.99293 10.3663 2.68171 9.97751 2.68294C9.78312 2.68356 9.60729 2.76659 9.47328 2.9025L5.48897 7.03856L1.42657 2.92804C1.2896 2.79299 1.10609 2.7111 0.917589 2.7117C0.528801 2.71294 0.225886 3.0261 0.230123 3.41487C0.232241 3.60925 0.304727 3.77396 0.435735 3.90313L4.96262 8.47165C5.11757 8.63609 5.30691 8.71207 5.51315 8.71731C5.71933 8.71665 5.89515 8.63363 6.0524 8.46819L10.4853 3.87123Z" fill="#570096"/>
</svg>
