<svg xmlns="http://www.w3.org/2000/svg" fill="none" viewBox="0 0 38 32"><g fill="#010002" clip-path="url(#a)"><path d="M18.93 9.565c2.451 0 4.438-1.673 4.438-3.737S21.38 2.092 18.93 2.092s-4.437 1.673-4.437 3.736 1.987 3.737 4.437 3.737M34.463 16.109l-4.136-.727c-1.409-.248-2.8.296-3.535 1.262a17 17 0 0 0-2.3-.796v-2.071c.002-1.567-1.52-2.848-3.375-2.848h-4.228c-1.864 0-3.381 1.281-3.381 2.848v2.082q-1.211.327-2.288.793c-.735-.97-2.128-1.518-3.539-1.27l-4.139.727c-1.816.32-2.995 1.837-2.615 3.372l1.039 4.18c.376 1.53 2.18 2.523 3.998 2.203l1.31-.23c.655.815 1.562 1.564 2.723 2.204 2.418 1.334 5.613 2.07 9.003 2.07 5.188 0 9.656-1.756 11.714-4.279l1.33.235c1.817.319 3.62-.673 3.998-2.204l1.04-4.179c.378-1.535-.8-3.052-2.62-3.372M18.999 28.482c-3.063 0-5.933-.65-8.074-1.838a8.3 8.3 0 0 1-1.83-1.333l1.003-.177c1.82-.319 2.999-1.836 2.619-3.369l-.931-3.757a14 14 0 0 1 1.72-.646v.686c0 1.564 1.52 2.845 3.38 2.845h4.23c1.855 0 3.375-1.283 3.375-2.845v-.721a14 14 0 0 1 1.737.64l-.945 3.8c-.376 1.532.801 3.05 2.621 3.368l1.013.179c-1.889 1.882-5.625 3.168-9.918 3.168M33.563 14.477c2.45 0 4.438-1.673 4.438-3.736s-1.987-3.737-4.438-3.737-4.437 1.673-4.437 3.737 1.987 3.736 4.437 3.736M5.348 14.399c2.4-.423 3.933-2.405 3.437-4.425C8.28 7.955 5.931 6.659 3.53 7.082 1.132 7.504-.407 9.484.095 11.504c.5 2.021 2.852 3.316 5.253 2.895"/></g><defs><clipPath id="a"><path fill="#fff" d="M0 0h38v32H0z"/></clipPath></defs></svg>