<svg xmlns="http://www.w3.org/2000/svg" width="18" height="16" fill="none" viewBox="0 0 18 16"><path stroke="#b51a28" stroke-linecap="round" stroke-linejoin="round" stroke-width="2" d="m9 11 3-3m0 0L9 5m3 3H1m0-4.752V3.2c0-1.12 0-1.68.218-2.108.192-.377.497-.682.874-.874C2.52 0 3.08 0 4.2 0h9.6c1.12 0 1.68 0 2.107.218.377.192.683.497.875.874.218.427.218.987.218 2.105v9.607c0 1.117 0 1.676-.218 2.104a2 2 0 0 1-.875.874c-.427.218-.986.218-2.104.218H4.197c-1.118 0-1.678 0-2.105-.218a2 2 0 0 1-.874-.874C1 14.48 1 13.92 1 12.8v-.05"/></svg>