<svg xmlns="http://www.w3.org/2000/svg" width="80" height="81" fill="none"><path fill="url(#a)" d="M37.35 2.343a4 4 0 0 1 5.3 0l23.713 20.97a4 4 0 0 1 1.27 2.2l6.304 31.02a4 4 0 0 1-2.65 4.59L41.27 71.175a4 4 0 0 1-2.54 0L8.713 61.123a4 4 0 0 1-2.65-4.59l6.304-31.02a4 4 0 0 1 1.27-2.2L37.35 2.343Z"/><g filter="url(#b)"><path fill="#3378D8" fill-opacity=".92" d="M40 71.25c17.259 0 31.25-13.991 31.25-31.25S57.26 8.75 40 8.75 8.75 22.741 8.75 40 22.741 71.25 40 71.25Z"/><path fill="url(#c)" fill-opacity=".5" d="M40 67.5c15.188 0 27.5-12.312 27.5-27.5S55.188 12.5 40 12.5 12.5 24.812 12.5 40 24.812 67.5 40 67.5Z" opacity=".18"/></g><path fill="#FCFCFC" d="M66.25 39.908c0 1.075-.061 2.151-.185 3.196-.123 1.168-.369 2.336-.646 3.443-.123.492-.246.953-.4 1.445a25.45 25.45 0 0 1-.954 2.55 26.02 26.02 0 0 1-2.954 5.073 26.88 26.88 0 0 1-3.324 3.688c-4.646 4.303-10.863 6.916-17.694 6.947a26.073 26.073 0 0 1-17.757-6.824 28.012 28.012 0 0 1-3.293-3.596 25.835 25.835 0 0 1-4.154-8.146 24.867 24.867 0 0 1-.923-4.303c-.123-1.076-.216-2.152-.216-3.227-.061-14.57 11.633-26.343 26.158-26.404 14.494-.03 26.28 11.65 26.342 26.158Z"/><defs><radialGradient id="a" cx="0" cy="0" r="1" gradientTransform="translate(39.987 39.987) scale(40.0303)" gradientUnits="userSpaceOnUse"><stop offset=".442" stop-color="#559EE7"/><stop offset=".712" stop-color="#B0D0FF"/><stop offset="1" stop-color="#2F57DE"/></radialGradient><radialGradient id="c" cx="0" cy="0" r="1" gradientTransform="translate(39.986 39.986) scale(27.4866)" gradientUnits="userSpaceOnUse"><stop stop-color="#fff" stop-opacity="0"/><stop offset="1" stop-color="#571600"/></radialGradient><filter id="b" width="74.5" height="74.5" x="2.75" y="5.75" color-interpolation-filters="sRGB" filterUnits="userSpaceOnUse"><feFlood flood-opacity="0" result="BackgroundImageFix"/><feColorMatrix in="SourceAlpha" result="hardAlpha" values="0 0 0 0 0 0 0 0 0 0 0 0 0 0 0 0 0 0 127 0"/><feOffset dy="3"/><feGaussianBlur stdDeviation="3"/><feColorMatrix values="0 0 0 0 0.00392157 0 0 0 0 0.0196078 0 0 0 0 0.2 0 0 0 0.08 0"/><feBlend in2="BackgroundImageFix" result="effect1_dropShadow_831_3371"/><feBlend in="SourceGraphic" in2="effect1_dropShadow_831_3371" result="shape"/></filter></defs></svg>