<svg xmlns="http://www.w3.org/2000/svg" fill="none" viewBox="0 0 23 20"><path stroke="#000" stroke-linecap="round" stroke-linejoin="round" stroke-width="2" d="M17.333 19c0-1.988-2.611-3.6-5.833-3.6S5.667 17.012 5.667 19M22 15.4c0-1.476-1.44-2.745-3.5-3.3M1 15.4c0-1.476 1.44-2.745 3.5-3.3m14-4.817A3.64 3.64 0 0 0 19.667 4.6c0-1.988-1.567-3.6-3.5-3.6-.897 0-1.715.347-2.334.917M4.5 7.283A3.64 3.64 0 0 1 3.333 4.6c0-1.988 1.567-3.6 3.5-3.6.897 0 1.714.347 2.334.917M11.5 11.8C9.567 11.8 8 10.188 8 8.2s1.567-3.6 3.5-3.6S15 6.212 15 8.2s-1.567 3.6-3.5 3.6"/></svg>