<svg xmlns="http://www.w3.org/2000/svg" fill="none" viewBox="0 0 40 40"><g fill="#000" clip-path="url(#a)"><path d="M24.364 18.982a7.41 7.41 0 0 0 3.015-5.937c0-4.068-3.31-7.378-7.379-7.378s-7.379 3.31-7.379 7.378c0 2.358 1.098 4.52 3.01 5.934-7.525 2.66-8.7 11.841-8.88 14.592a.717.717 0 0 0 .713.762h25.072a.716.716 0 0 0 .714-.762c-.181-2.745-1.359-11.912-8.886-14.59"/><path d="M34.136 19.328a4.9 4.9 0 0 0 1.988-3.919 4.875 4.875 0 0 0-4.87-4.87c-.77 0-1.495.185-2.144.505a9.3 9.3 0 0 1 .218 2.002c0 1.93-.612 3.802-1.706 5.357 4.31 2.71 6.18 7.453 6.989 11.058h4.918a.474.474 0 0 0 .47-.502c-.119-1.814-.895-7.864-5.863-9.63M12.364 18.403a9.23 9.23 0 0 1-1.693-5.357c0-.688.078-1.356.22-2.002a4.8 4.8 0 0 0-2.145-.504 4.875 4.875 0 0 0-4.87 4.869c0 1.557.724 2.985 1.987 3.917C.896 21.082.12 27.142 0 28.957a.47.47 0 0 0 .471.502h4.915c.808-3.604 2.674-8.35 6.977-11.056"/></g><defs><clipPath id="a"><path fill="#fff" d="M0 0h40v40H0z"/></clipPath></defs></svg>