<svg xmlns="http://www.w3.org/2000/svg" fill="none" viewBox="0 0 24 25"><path stroke="#0f130d" stroke-linecap="round" stroke-linejoin="round" stroke-width="2" d="M23 19.346v-7.629c0-.734 0-1.102-.09-1.444-.08-.303-.21-.59-.385-.848-.198-.293-.474-.535-1.027-1.02l-6.6-5.774c-1.027-.898-1.54-1.347-2.118-1.518a2.75 2.75 0 0 0-1.56 0c-.578.17-1.09.62-2.115 1.516L2.503 8.406c-.553.484-.83.726-1.028 1.019-.176.259-.306.545-.386.848C1 10.615 1 10.983 1 11.717v7.629c0 1.281 0 1.922.21 2.427a2.75 2.75 0 0 0 1.487 1.489c.506.21 1.146.21 2.428.21 1.281 0 1.922 0 2.428-.21a2.75 2.75 0 0 0 1.488-1.489c.209-.505.209-1.146.209-2.427V17.97a2.75 2.75 0 0 1 5.5 0v1.375c0 1.281 0 1.922.21 2.427a2.75 2.75 0 0 0 1.487 1.489c.506.21 1.146.21 2.428.21 1.281 0 1.922 0 2.428-.21a2.75 2.75 0 0 0 1.488-1.489c.209-.505.209-1.146.209-2.427"/></svg>