<svg width="18" height="14" viewBox="0 0 18 14" fill="none" xmlns="http://www.w3.org/2000/svg">
<path d="M5.25 2.33333H17.25C17.4489 2.33333 17.6397 2.25139 17.7803 2.10553C17.921 1.95967 18 1.76183 18 1.55555C18 1.34928 17.921 1.15144 17.7803 1.00558C17.6397 0.859722 17.4489 0.777777 17.25 0.777777H5.25C5.05109 0.777777 4.86032 0.859722 4.71967 1.00558C4.57902 1.15144 4.5 1.34928 4.5 1.55555C4.5 1.76183 4.57902 1.95967 4.71967 2.10553C4.86032 2.25139 5.05109 2.33333 5.25 2.33333Z" fill="black"/>
<path d="M17.25 6.22222H5.25C5.05109 6.22222 4.86032 6.30417 4.71967 6.45003C4.57902 6.59589 4.5 6.79372 4.5 7C4.5 7.20628 4.57902 7.40411 4.71967 7.54997C4.86032 7.69583 5.05109 7.77778 5.25 7.77778H17.25C17.4489 7.77778 17.6397 7.69583 17.7803 7.54997C17.921 7.40411 18 7.20628 18 7C18 6.79372 17.921 6.59589 17.7803 6.45003C17.6397 6.30417 17.4489 6.22222 17.25 6.22222Z" fill="black"/>
<path d="M17.25 11.6667H5.25C5.05109 11.6667 4.86032 11.7486 4.71967 11.8945C4.57902 12.0403 4.5 12.2382 4.5 12.4444C4.5 12.6507 4.57902 12.8486 4.71967 12.9944C4.86032 13.1403 5.05109 13.2222 5.25 13.2222H17.25C17.4489 13.2222 17.6397 13.1403 17.7803 12.9944C17.921 12.8486 18 12.6507 18 12.4444C18 12.2382 17.921 12.0403 17.7803 11.8945C17.6397 11.7486 17.4489 11.6667 17.25 11.6667Z" fill="black"/>
<path d="M1.5 3.11111C2.32843 3.11111 3 2.41466 3 1.55556C3 0.696446 2.32843 0 1.5 0C0.671573 0 0 0.696446 0 1.55556C0 2.41466 0.671573 3.11111 1.5 3.11111Z" fill="black"/>
<path d="M1.5 8.55556C2.32843 8.55556 3 7.85911 3 7C3 6.14089 2.32843 5.44445 1.5 5.44445C0.671573 5.44445 0 6.14089 0 7C0 7.85911 0.671573 8.55556 1.5 8.55556Z" fill="black"/>
<path d="M1.5 14C2.32843 14 3 13.3036 3 12.4444C3 11.5853 2.32843 10.8889 1.5 10.8889C0.671573 10.8889 0 11.5853 0 12.4444C0 13.3036 0.671573 14 1.5 14Z" fill="black"/>
</svg>
