<svg xmlns="http://www.w3.org/2000/svg" fill="none" viewBox="0 0 15 17"><path stroke="#000" stroke-linecap="round" stroke-linejoin="round" stroke-width="2" d="M9.412 12.842v.79C9.412 14.94 8.385 16 7.118 16s-2.294-1.06-2.294-2.368v-.79m4.588 0H4.824m4.588 0h3.059a.777.777 0 0 0 .764-.79v-.462c0-.21-.08-.41-.224-.558l-.39-.403a.54.54 0 0 1-.15-.375V7.316q0-.21-.015-.414m-7.632 5.94h-3.06a.78.78 0 0 1-.764-.79v-.462c0-.21.08-.41.224-.558l.39-.404c.097-.099.15-.233.15-.373v-2.94c0-3.051 2.397-5.526 5.354-5.526.544 0 1.069.084 1.564.24m3.774 4.873A3.18 3.18 0 0 0 14 4.158C14 2.414 12.63 1 10.941 1c-.895 0-1.7.397-2.26 1.03m3.775 4.872a2.97 2.97 0 0 1-1.515.414c-1.69 0-3.059-1.414-3.059-3.158 0-.82.303-1.567.8-2.129m0 0z"/></svg>