<svg width="17" height="17" viewBox="0 0 17 17" fill="none" xmlns="http://www.w3.org/2000/svg">
<path d="M3.89584 13.2222C4.48264 13.2222 4.95834 12.588 4.95834 11.8056C4.95834 11.0232 4.48264 10.3889 3.89584 10.3889C3.30903 10.3889 2.83334 11.0232 2.83334 11.8056C2.83334 12.588 3.30903 13.2222 3.89584 13.2222Z" fill="black"/>
<path d="M13.4583 0H3.54167C2.6027 0.00149964 1.70252 0.4995 1.03857 1.38476C0.374625 2.27003 0.00112473 3.47027 0 4.72222V12.2778C0.00112473 13.5297 0.374625 14.73 1.03857 15.6152C1.70252 16.5005 2.6027 16.9985 3.54167 17H13.4583C14.3973 16.9985 15.2975 16.5005 15.9614 15.6152C16.6254 14.73 16.9989 13.5297 17 12.2778V4.72222C16.9989 3.47027 16.6254 2.27003 15.9614 1.38476C15.2975 0.4995 14.3973 0.00149964 13.4583 0ZM3.54167 1.88889H13.4583C14.0219 1.88889 14.5624 2.1874 14.9609 2.71875C15.3594 3.25011 15.5833 3.97078 15.5833 4.72222H1.41667C1.41667 3.97078 1.64055 3.25011 2.03906 2.71875C2.43758 2.1874 2.97808 1.88889 3.54167 1.88889ZM13.4583 15.1111H3.54167C2.97808 15.1111 2.43758 14.8126 2.03906 14.2812C1.64055 13.7499 1.41667 13.0292 1.41667 12.2778V6.61111H15.5833V12.2778C15.5833 13.0292 15.3594 13.7499 14.9609 14.2812C14.5624 14.8126 14.0219 15.1111 13.4583 15.1111Z" fill="black"/>
</svg>
