<svg width="25" height="25" viewBox="0 0 25 25" fill="none" xmlns="http://www.w3.org/2000/svg">
<path d="M10.5005 8.22621C11.622 6.21432 12.1828 5.20837 13.0212 5.20837C13.8595 5.20837 14.4203 6.21432 15.5418 8.22621L15.832 8.74671C16.1506 9.31842 16.31 9.60428 16.5584 9.79289C16.8069 9.9815 17.1164 10.0515 17.7352 10.1915L18.2987 10.319C20.4765 10.8118 21.5654 11.0582 21.8245 11.8913C22.0836 12.7243 21.3412 13.5924 19.8565 15.3286L19.4724 15.7777C19.0504 16.2712 18.8395 16.5179 18.7446 16.8231C18.6497 17.1282 18.6816 17.4573 18.7454 18.1156L18.8034 18.7148C19.0279 21.0313 19.1401 22.1895 18.4619 22.7044C17.7837 23.2193 16.7641 22.7498 14.725 21.811L14.1974 21.5681C13.618 21.3013 13.3282 21.1679 13.0212 21.1679C12.7141 21.1679 12.4243 21.3013 11.8449 21.5681L11.3173 21.811C9.27821 22.7498 8.25866 23.2193 7.58041 22.7044C6.90215 22.1895 7.01439 21.0313 7.23886 18.7148L7.29693 18.1156C7.36071 17.4573 7.39261 17.1282 7.2977 16.8231C7.2028 16.5179 6.99184 16.2712 6.56994 15.7777L6.18582 15.3286C4.70112 13.5924 3.95876 12.7243 4.21783 11.8913C4.4769 11.0582 5.56582 10.8118 7.74367 10.319L8.3071 10.1915C8.92597 10.0515 9.23541 9.9815 9.48387 9.79289C9.73232 9.60428 9.89168 9.31843 10.2104 8.74671L10.5005 8.22621Z" fill="#E2E600"/>
<path d="M5.07005 2.60473C5.10129 2.49454 5.29688 2.49388 5.32886 2.60385C5.4749 3.10605 5.74571 3.84836 6.15521 4.25511C6.56472 4.66186 7.30884 4.92765 7.81202 5.07029C7.92221 5.10153 7.92287 5.29713 7.81289 5.3291C7.31069 5.47515 6.56838 5.74596 6.16164 6.15546C5.75489 6.56497 5.4891 7.30908 5.34645 7.81226C5.31521 7.92246 5.11962 7.92311 5.08764 7.81314C4.9416 7.31094 4.6708 6.56863 4.26129 6.16189C3.85178 5.75514 3.10766 5.48934 2.60449 5.3467C2.4943 5.31546 2.49363 5.11986 2.60361 5.08789C3.10581 4.94184 3.84812 4.67104 4.25487 4.26153C4.66162 3.85202 4.9274 3.10791 5.07005 2.60473Z" fill="#E2E600"/>
<path fill-rule="evenodd" clip-rule="evenodd" d="M19.7917 3.38538C20.2231 3.38538 20.5729 3.73516 20.5729 4.16663V4.42704H20.8333C21.2648 4.42704 21.6146 4.77682 21.6146 5.20829C21.6146 5.63976 21.2648 5.98954 20.8333 5.98954H20.5729V6.24996C20.5729 6.68143 20.2231 7.03121 19.7917 7.03121C19.3602 7.03121 19.0104 6.68143 19.0104 6.24996V5.98954H18.75C18.3185 5.98954 17.9688 5.63976 17.9688 5.20829C17.9688 4.77682 18.3185 4.42704 18.75 4.42704H19.0104V4.16663C19.0104 3.73516 19.3602 3.38538 19.7917 3.38538Z" fill="#E2E600"/>
</svg>
