<svg width="51" height="51" viewBox="0 0 51 51" fill="none" xmlns="http://www.w3.org/2000/svg">
<circle cx="25.2059" cy="25.2059" r="19.4559" fill="white"/>
<g filter="url(#filter0_d_831_3300)">
<g filter="url(#filter1_d_831_3300)">
<path d="M13.1783 31.3667C16.8015 28.0081 20.0506 25.972 25.25 25.972C30.4494 25.972 33.6985 28.0081 37.3216 31.3667C38.9311 32.8586 39.1805 35.2861 38.0693 37.0678C37.6688 37.7095 36.9016 37.972 36.1452 37.972H14.3548C13.5985 37.972 12.831 37.7095 12.4307 37.0678C11.3196 35.2861 11.5687 32.8586 13.1783 31.3667Z" fill="url(#paint0_linear_831_3300)"/>
</g>
<g filter="url(#filter2_d_831_3300)">
<path d="M25.25 22.9721C28.9779 22.9721 32 19.95 32 16.2221C32 12.4942 28.9779 9.47211 25.25 9.47211C21.5221 9.47211 18.5 12.4942 18.5 16.2221C18.5 19.95 21.5221 22.9721 25.25 22.9721Z" fill="url(#paint1_linear_831_3300)"/>
</g>
</g>
<circle cx="25.25" cy="25.25" r="24.875" stroke="black" stroke-width="0.75"/>
<defs>
<filter id="filter0_d_831_3300" x="7.75" y="5.47211" width="43" height="44.4999" filterUnits="userSpaceOnUse" color-interpolation-filters="sRGB">
<feFlood flood-opacity="0" result="BackgroundImageFix"/>
<feColorMatrix in="SourceAlpha" type="matrix" values="0 0 0 0 0 0 0 0 0 0 0 0 0 0 0 0 0 0 127 0" result="hardAlpha"/>
<feOffset dx="4" dy="4"/>
<feGaussianBlur stdDeviation="4"/>
<feColorMatrix type="matrix" values="0 0 0 0 0.615686 0 0 0 0 0.407843 0 0 0 0 0.952941 0 0 0 0.4 0"/>
<feBlend mode="normal" in2="BackgroundImageFix" result="effect1_dropShadow_831_3300"/>
<feBlend mode="normal" in="SourceGraphic" in2="effect1_dropShadow_831_3300" result="shape"/>
</filter>
<filter id="filter1_d_831_3300" x="3.75" y="17.972" width="43" height="28" filterUnits="userSpaceOnUse" color-interpolation-filters="sRGB">
<feFlood flood-opacity="0" result="BackgroundImageFix"/>
<feColorMatrix in="SourceAlpha" type="matrix" values="0 0 0 0 0 0 0 0 0 0 0 0 0 0 0 0 0 0 127 0" result="hardAlpha"/>
<feOffset/>
<feGaussianBlur stdDeviation="4"/>
<feComposite in2="hardAlpha" operator="out"/>
<feColorMatrix type="matrix" values="0 0 0 0 1 0 0 0 0 1 0 0 0 0 1 0 0 0 0.8 0"/>
<feBlend mode="normal" in2="BackgroundImageFix" result="effect1_dropShadow_831_3300"/>
<feBlend mode="normal" in="SourceGraphic" in2="effect1_dropShadow_831_3300" result="shape"/>
</filter>
<filter id="filter2_d_831_3300" x="10.5" y="1.47211" width="29.5" height="29.5" filterUnits="userSpaceOnUse" color-interpolation-filters="sRGB">
<feFlood flood-opacity="0" result="BackgroundImageFix"/>
<feColorMatrix in="SourceAlpha" type="matrix" values="0 0 0 0 0 0 0 0 0 0 0 0 0 0 0 0 0 0 127 0" result="hardAlpha"/>
<feOffset/>
<feGaussianBlur stdDeviation="4"/>
<feComposite in2="hardAlpha" operator="out"/>
<feColorMatrix type="matrix" values="0 0 0 0 1 0 0 0 0 1 0 0 0 0 1 0 0 0 0.8 0"/>
<feBlend mode="normal" in2="BackgroundImageFix" result="effect1_dropShadow_831_3300"/>
<feBlend mode="normal" in="SourceGraphic" in2="effect1_dropShadow_831_3300" result="shape"/>
</filter>
<linearGradient id="paint0_linear_831_3300" x1="25.25" y1="25.972" x2="25.25" y2="37.972" gradientUnits="userSpaceOnUse">
<stop stop-color="#6966FF"/>
<stop offset="1" stop-color="#9D68F3"/>
</linearGradient>
<linearGradient id="paint1_linear_831_3300" x1="25.25" y1="9.47211" x2="25.25" y2="22.9721" gradientUnits="userSpaceOnUse">
<stop stop-color="#6966FF"/>
<stop offset="1" stop-color="#9D68F3"/>
</linearGradient>
</defs>
</svg>
