<svg xmlns="http://www.w3.org/2000/svg" width="16" height="16" fill="none" viewBox="0 0 16 16"><path stroke="url(#a)" stroke-linecap="round" stroke-linejoin="round" stroke-width="2" d="M8 10.333V8m0 0V5.667M8 8H5.667M8 8h2.333M8 15a6.97 6.97 0 0 1-3.492-.932 1 1 0 0 0-.2-.101.4.4 0 0 0-.13-.013 1 1 0 0 0-.201.054l-1.796.598-.002.001c-.379.126-.569.19-.695.145a.39.39 0 0 1-.236-.236c-.045-.126.019-.316.145-.694v-.002l.598-1.794.002-.004c.033-.1.05-.15.053-.2a.4.4 0 0 0-.013-.13 1 1 0 0 0-.099-.196l-.002-.004A7 7 0 1 1 8 15"/><defs><linearGradient id="a" x1="-2.111" x2="20.444" y1="8" y2="8" gradientUnits="userSpaceOnUse"><stop stop-color="#5139f7"/><stop offset="1" stop-color="#980ffa"/></linearGradient></defs></svg>