<svg xmlns="http://www.w3.org/2000/svg" fill="none" viewBox="0 0 22 21"><path stroke="#000" stroke-linecap="round" stroke-linejoin="round" stroke-width="2" d="m19.346 7.35-.366-.203-.113-.064a2 2 0 0 1-.67-.66c-.018-.027-.034-.056-.066-.112a2.002 2.002 0 0 1-.3-1.157l.007-.425c.011-.681.017-1.022-.079-1.329a2 2 0 0 0-.417-.735c-.214-.24-.511-.412-1.106-.754l-.494-.285c-.592-.342-.889-.513-1.204-.578a2 2 0 0 0-.843.008c-.313.07-.606.245-1.191.596l-.003.001-.354.212c-.056.034-.085.05-.113.066-.278.155-.588.24-.907.25-.032.002-.064.002-.13.002l-.13-.001a2 2 0 0 1-.91-.252l-.111-.066-.356-.214c-.59-.354-.885-.531-1.2-.602a2 2 0 0 0-.846-.006c-.316.066-.612.238-1.205.583h-.003l-.488.284-.005.003c-.588.341-.883.512-1.095.752a2 2 0 0 0-.415.734c-.095.307-.09.649-.078 1.332l.007.425c0 .064.003.096.002.128a2 2 0 0 1-.301 1.027c-.033.056-.048.084-.065.11-.169.272-.4.5-.675.663-.027.017-.055.032-.112.063l-.361.2c-.602.334-.903.501-1.121.738a2 2 0 0 0-.43.73c-.1.308-.1.652-.099 1.34l.002.561c.001.684.003 1.025.104 1.33a2 2 0 0 0 .428.726c.217.235.515.401 1.112.733l.358.2c.061.034.092.05.121.068a2 2 0 0 1 .74.781l.067.12a2 2 0 0 1 .23 1.037l-.007.408c-.012.686-.017 1.03.079 1.337.085.272.227.523.417.735.214.24.512.412 1.106.755l.494.284c.593.342.889.513 1.204.578.278.057.566.055.843-.007.314-.07.608-.247 1.195-.598l.353-.212.113-.066c.278-.154.588-.24.907-.25.032-.002.064-.002.13-.002l.13.001a2 2 0 0 1 .91.252l.092.055.376.225c.59.354.884.53 1.199.602.278.062.567.065.846.006.316-.066.613-.238 1.206-.582l.495-.288c.588-.34.883-.512 1.096-.752a2 2 0 0 0 .414-.734c.095-.304.09-.643.078-1.317l-.008-.44v-.128a2 2 0 0 1 .3-1.027l.066-.11a2 2 0 0 1 .674-.664l.11-.062h.002l.361-.2c.602-.334.903-.501 1.122-.739.194-.21.34-.458.429-.73.1-.305.1-.646.098-1.326l-.001-.574c-.002-.684-.003-1.025-.104-1.33a2 2 0 0 0-.428-.725c-.217-.236-.515-.402-1.111-.733z"/><path stroke="#000" stroke-linecap="round" stroke-linejoin="round" stroke-width="2" d="M6.996 10.428a4 4 0 1 0 8 0 4 4 0 0 0-8 0"/></svg>