<svg width="20" height="21" viewBox="0 0 20 21" fill="none" xmlns="http://www.w3.org/2000/svg">
<path d="M17.0204 9.30579H2.9786C1.78245 9.30579 0.80957 10.2788 0.80957 11.475V13.484V14.1274L1.44613 14.2185C1.81402 14.2712 2.09171 14.5913 2.09171 14.9628C2.09171 15.3344 1.81419 15.6545 1.44645 15.7072L0.80957 15.7983V16.4418V18.4511C0.80957 19.6469 1.78245 20.6199 2.9786 20.6199H17.0204C18.2165 20.6199 19.1896 19.6469 19.1896 18.4511V16.4552V15.7469L18.4819 15.7138C18.0799 15.6951 17.7648 15.3652 17.7648 14.9629C17.7648 14.5609 18.0799 14.231 18.4822 14.2119L19.1896 14.1785V13.4705V11.475C19.1896 10.2788 18.2165 9.30579 17.0204 9.30579ZM18.4472 13.4705C17.6544 13.5082 17.0227 14.1608 17.0227 14.9629C17.0227 15.7652 17.6544 16.4182 18.4472 16.4552V18.4511C18.4472 19.239 17.8083 19.8779 17.0204 19.8779H2.9786C2.1905 19.8779 1.55164 19.239 1.55164 18.4511V16.4418C2.2762 16.3379 2.83378 15.7164 2.83378 14.9628C2.83378 14.2096 2.27616 13.5881 1.55164 13.484V11.475C1.55164 10.6867 2.1905 10.0479 2.9786 10.0479H17.0204C17.8083 10.0479 18.4472 10.6867 18.4472 11.475V13.4705Z" fill="#570096"/>
<path d="M5.56222 17.6968H5.07129V18.9775H5.56222V17.6968Z" fill="#570096"/>
<path d="M5.56222 15.4474H5.07129V16.7278H5.56222V15.4474Z" fill="#570096"/>
<path d="M5.56222 13.1975H5.07129V14.4782H5.56222V13.1975Z" fill="#570096"/>
<path d="M5.56222 10.9481H5.07129V12.2288H5.56222V10.9481Z" fill="#570096"/>
<path d="M4.17024 7.27979L3.74121 7.51828L4.36387 8.63711L4.79274 8.39862L4.17024 7.27979Z" fill="#570096"/>
<path d="M19.7264 7.20991L18.756 5.46564L18.4114 4.84704L17.7771 5.16222C17.4167 5.34111 16.981 5.20612 16.7857 4.85457C16.5898 4.50335 16.7051 4.06171 17.0471 3.84976L17.6493 3.47658L17.3046 2.85767L16.3345 1.11408C15.753 0.0690291 14.4297 -0.308411 13.3843 0.273456L1.11414 7.10013C0.0688477 7.68167 -0.30823 9.00525 0.273315 10.0504L0.308554 10.1139C0.440247 9.85642 0.607784 9.62087 0.804881 9.41281C0.611448 8.78282 0.875842 8.08203 1.47487 7.74848L13.7453 0.921774C14.434 0.538454 15.3029 0.786134 15.6862 1.47481L16.6563 3.21872C15.9817 3.63675 15.7471 4.51479 16.137 5.21554C16.5269 5.91634 17.3964 6.17976 18.1073 5.82657L19.0777 7.57088C19.3706 8.09669 19.2927 8.7264 18.9339 9.16574C19.1262 9.32526 19.2959 9.5104 19.4434 9.7122C20.0436 9.0423 20.1877 8.03913 19.7264 7.20991Z" fill="#570096"/>
</svg>
